<svg width="134" height="169" viewBox="0 0 134 169" fill="none" xmlns="http://www.w3.org/2000/svg">
<g id="Group" opacity="0.77">
<path id="Vector_12" opacity="0.77" d="M48.2231 45.9139C51.3897 50.8067 57.3177 52.4035 61.7321 49.0493C64.4111 47.0076 65.9817 42.9389 63.7207 36.6534C64.1324 37.3461 64.506 37.9586 64.8734 38.52C69.446 45.6733 76.5331 41.3638 76.5331 41.3638C82.2837 37.7982 81.3147 31.8845 78.8004 24.6949C76.3399 17.5737 73.1118 10.8369 69.1927 4.64251C71.7577 1.87893 74.804 -0.913814 78.015 0.311201C81.4794 1.6383 82.4484 6.64047 82.8411 10.8114C83.0247 12.751 83.2084 14.6687 83.3921 16.6083L86.1661 45.1629C87.0907 54.6421 88.0154 64.2599 90.0231 73.5132C91.0611 78.5161 92.4981 83.3979 94.3171 88.0967C96.8624 94.6469 100.459 100.585 104.919 105.597C110.482 99.2524 115.352 92.1517 119.422 84.4508C123.316 85.9179 126.75 88.6713 129.296 92.3675C131.841 96.0637 133.388 100.539 133.742 105.24V105.48C135.313 122.55 121.037 135.377 109.042 143.266C95.1847 152.439 79.7377 159.308 64.5631 165.018C58.3057 167.38 50.1737 169.393 43.5681 166.928C42.8568 166.667 42.1627 166.348 41.4907 165.973C34.9041 162.254 30.4961 154.459 27.0571 147.335C10.5904 113.246 3.7504 74.1038 0.146729 35.3408C7.35406 34.196 14.5361 32.92 21.6294 31.1626C21.6294 31.1626 21.6294 31.221 21.6737 31.2429L29.8501 46.8545L30.5214 48.1525C32.2947 51.0692 35.3664 51.8494 38.2987 51.5577C40.1633 51.4512 41.9543 50.6878 43.4287 49.3702C47.9761 44.9951 43.7074 39.0596 41.3514 34.8814" fill="white"/>
<path id="Vector_13" opacity="0.77" d="M48.2231 45.9139C51.3897 50.8067 57.3177 52.4035 61.7321 49.0493C64.4111 47.0076 65.9817 42.9389 63.7207 36.6534C64.1324 37.3461 64.506 37.9586 64.8734 38.52C69.446 45.6733 76.5331 41.3638 76.5331 41.3638C82.2837 37.7982 81.3147 31.8845 78.8004 24.6949C76.3399 17.5737 73.1118 10.8369 69.1927 4.64251C71.7577 1.87893 74.804 -0.913814 78.015 0.311201C81.4794 1.6383 82.4484 6.64047 82.8411 10.8114C83.0247 12.751 83.2084 14.6687 83.3921 16.6083L86.1661 45.1629C87.0907 54.6421 88.0154 64.2599 90.0231 73.5132C91.0611 78.5161 92.4981 83.3979 94.3171 88.0967C96.8624 94.6469 100.459 100.585 104.919 105.597C110.482 99.2524 115.352 92.1517 119.422 84.4508C123.316 85.9179 126.75 88.6713 129.296 92.3675C131.841 96.0637 133.388 100.539 133.742 105.24V105.48C135.313 122.55 121.037 135.377 109.042 143.266C95.1847 152.439 79.7377 159.308 64.5631 165.018C58.3057 167.38 50.1737 169.393 43.5681 166.928C42.8568 166.667 42.1627 166.348 41.4907 165.973C34.9041 162.254 30.4961 154.459 27.0571 147.335C10.5904 113.246 3.7504 74.1038 0.146729 35.3408C7.35406 34.196 14.5361 32.92 21.6294 31.1626C21.6294 31.1626 21.6294 31.221 21.6737 31.2429L29.8501 46.8545L30.5214 48.1525C32.2947 51.0692 35.3664 51.8494 38.2987 51.5577C40.1633 51.4512 41.9543 50.6878 43.4287 49.3702C47.9761 44.9951 43.7074 39.0596 41.3514 34.8814" fill="#3FBDF1"/>
<path id="Vector_14" opacity="0.77" d="M50.1673 48.2254C52.973 52.6004 57.7673 52.0462 61.732 49.0493C64.126 47.2264 66.0893 47.7587 64.069 42.1368C64.4427 42.7493 64.4933 40.6784 64.8227 41.1378C68.9077 47.5254 64.8733 38.4982 64.8733 38.4982C70.5733 46.7889 82.9803 38.9794 80.7067 32.57C78.3 25.6647 75.7667 15.4562 72.5557 10.352C75.089 7.59569 74.6013 8.00401 77.825 10.1988C78.6908 10.8391 79.4159 11.7031 79.9422 12.7218C80.4692 13.7405 80.7827 14.886 80.8587 16.0687C81.1184 18.8469 81.378 21.5084 81.6377 24.2209L84.1077 49.7421C84.9374 58.2224 85.7607 66.7902 87.553 75.0445C88.4796 79.5078 89.7646 83.8624 91.391 88.053C93.6584 93.8207 100.942 103.424 104.919 107.821C109.865 102.17 115.793 91.7791 119.422 84.8738C126.389 87.3384 126.085 95.0093 126.579 103.388V103.606C127.985 118.839 115.242 130.28 104.564 137.331C92.189 145.519 78.4013 151.644 64.8543 156.749C59.2683 158.863 52.0103 160.686 46.114 158.455C45.4781 158.224 44.8575 157.938 44.2583 157.602C38.381 154.277 34.4417 147.328 31.37 140.962C17.9243 113.158 11.686 81.5925 8.25334 49.9463C8.00128 47.5779 8.55798 45.1905 9.80565 43.2859C11.0533 41.3813 12.8944 40.1089 14.9414 39.7378C18.7984 39.0086 22.6427 38.2794 26.4617 37.3023L26.5694 37.3606L33.8653 51.2952C35.455 53.8838 35.7147 51.8567 38.3304 51.5942C39.9834 51.4264 43.188 51.0546 44.4673 49.8223C48.527 45.9285 46.2343 44.317 44.1317 40.5909" fill="#3FBDF1"/>
</g>
</svg>
